<?xml version="1.0" encoding="utf-8"?>
<svg version="1.1" id="Layer_1" xmlns="http://www.w3.org/2000/svg" xmlns:xlink="http://www.w3.org/1999/xlink" x="0px" y="0px"
	 viewBox="0 0 1310.547 1721.354" enable-background="new 0 0 1310.547 1721.354" xml:space="preserve">
<path d="M1163.883,509.988c-43.093,5.175-74.694,43.289-74.694,86.691v321.917c0,16.993-13.776,30.769-30.769,30.769h0
	c-16.994,0-30.769-13.776-30.769-30.769V256.898c0-43.402-31.601-81.516-74.694-86.691c-51.367-6.169-95.442,34.24-95.442,84.444
	v663.946c0,16.993-13.776,30.769-30.769,30.769s-30.769-13.776-30.769-30.769V145.745c0-46.787-38.28-85.068-85.068-85.068h0
	c-46.787,0-85.068,38.28-85.068,85.068v772.851c0,16.993-13.776,30.769-30.769,30.769s-30.769-13.776-30.769-30.769V286.682
	c0-46.787-38.28-85.068-85.068-85.068h0c-46.787,0-85.068,38.28-85.068,85.068v928.668l-160.088-160.088
	c-41.687-41.688-109.904-41.688-151.591,0c-41.688,41.687-41.688,109.904,0,151.591l269.433,269.433
	c17.707,17.707,109.985,184.391,298.116,184.391h353.419c141.313,0,255.87-114.557,255.87-255.87V594.432
	C1259.325,544.228,1215.25,503.819,1163.883,509.988z"/>
</svg>
