<svg xmlns="http://www.w3.org/2000/svg" viewBox="0 0 488.2 478.8"><defs><style>.cls-1{fill:#fff;}.cls-2{fill:#231f20;}.cls-3{fill:#004a98;}.cls-4{fill:#00a887;}.cls-5{fill:#fd0;}.cls-6{fill:#ff5100;}.cls-7{fill:#9d1d96;}.cls-8{fill:#f5333f;}</style></defs><title>Fichier 1</title><g id="Calque_2" data-name="Calque 2"><g id="Layer_1" data-name="Layer 1"><path class="cls-1" d="M179.1,478.7C80.2,478.7,0,398.8,0,300.3A177.67,177.67,0,0,1,66.4,161.7C74.9,71,151.5,0,244.7,0c93.6,0,170.5,71.6,178.4,162.8a178,178,0,0,1,65.1,137.6c0,98.5-80.2,178.4-179.1,178.4a180.55,180.55,0,0,1-65-12.1A182.22,182.22,0,0,1,179.1,478.7Zm0-55.4c25.4,0,42.8-7,65-17.6,22.2,10.5,39.6,17.6,65,17.6,68.2,0,123.5-55.1,123.5-123.1,0-50.1-25.5-81.8-64.3-108.9-.7-72.1-43.2-136.1-123.7-136.1-80.2,0-122.7,63.6-123.7,135.5-39.3,27-65.3,59-65.3,109.6C55.6,368.2,110.9,423.3,179.1,423.3Z"/><path class="cls-2" d="M184.4,457A161.39,161.39,0,0,1,82.9,170.2c8.4-88.7,87-153.9,175.8-145.5A161.32,161.32,0,0,1,404.3,171.2,161.41,161.41,0,0,1,243,446,160.82,160.82,0,0,1,184.4,457Zm0-50.1c22.9,0,38.6-6.4,58.6-15.9,20,9.5,35.7,15.9,58.5,15.9A111.26,111.26,0,0,0,412.8,295.6h0c0-45.3-22.9-73.9-57.9-98.5-.6-65.1-39-123-111.4-123C171.3,74.1,133,131.6,132,196.5,96.5,221,73.1,249.8,73.1,295.6A111.26,111.26,0,0,0,184.4,406.9Z"/><path class="cls-3" d="M439.1,297.1A137.75,137.75,0,0,1,242.3,421.4a137.67,137.67,0,0,0,78.5-122.2,137.62,137.62,0,0,0,59.7-113.5v-1.3A137.1,137.1,0,0,1,439.1,297.1Z"/><path class="cls-4" d="M320.9,299.2a137.56,137.56,0,0,1-78.5,122.2,137.74,137.74,0,0,1-78.5-123,137.72,137.72,0,0,0,157,.8Z"/><path class="cls-5" d="M242.4,421.4A137.68,137.68,0,0,1,105.3,183.6v2.1a137.5,137.5,0,0,0,58.6,112.7A137.56,137.56,0,0,0,242.4,421.4Z"/><path class="cls-2" d="M320.9,299.2a137.72,137.72,0,0,1-157-.8v-1.3a137.56,137.56,0,0,1,78.5-124.3,137.56,137.56,0,0,1,78.5,124.3Z"/><path class="cls-6" d="M163.9,298.4a137.5,137.5,0,0,1-58.6-112.7v-2.1a138,138,0,0,1,137.1-10.9A137.56,137.56,0,0,0,163.9,297Z"/><path class="cls-7" d="M380.5,185.7a137.75,137.75,0,0,1-59.7,113.5v-2.1a137.56,137.56,0,0,0-78.5-124.3,137.89,137.89,0,0,1,138.2,11.6Z"/><path class="cls-8" d="M242.4,172.7a137.73,137.73,0,0,0-137.1,10.9,137.61,137.61,0,0,1,275.2.8,137.72,137.72,0,0,0-138.1-11.7Z"/><path class="cls-1" d="M257.7,335.3a5.53,5.53,0,0,1,8.3,7.3l-.4.4-39.8,39.9a5.52,5.52,0,0,1-8.2-7.4l.4-.4Z"/><path class="cls-1" d="M256.6,357.6a6.16,6.16,0,0,1,8.7.1,5.89,5.89,0,0,1,1.7,4.2h.1v16.5H267v.1a6.06,6.06,0,0,1-6.1,6.1H244.5a6.09,6.09,0,0,1-4.1-10.6l16.2-16.4Z"/><path class="cls-1" d="M376.1,320.7a7.42,7.42,0,0,1,10.5,0,7.65,7.65,0,0,1,2.2,5.1h.1v19.9h-.1v.1a7.38,7.38,0,0,1-7.4,7.4H361.5a7.43,7.43,0,0,1-5-12.9l19.6-19.6Z"/><path class="cls-1" d="M130.6,310a6.65,6.65,0,0,1,9.7,9.1c-.1.1-.1.2-.2.2L91.9,367.6a6.65,6.65,0,1,1-9.5-9.3l.2-.2Z"/><path class="cls-1" d="M175,194.3a5.52,5.52,0,1,1,8.2,7.4l-.3.3-39.8,39.8a5.52,5.52,0,0,1-8.2-7.4l.4-.4Z"/><path class="cls-1" d="M144,219.5a6.16,6.16,0,0,1-8.7,0,6.22,6.22,0,0,1-1.8-4.3h-.1V198.8h.1v-.1a6.06,6.06,0,0,1,6.1-6.1H156a6.09,6.09,0,0,1,4.1,10.6Z"/><path class="cls-1" d="M239.9,123.1a7.42,7.42,0,0,1-10.5,0,7.26,7.26,0,0,1-2.2-5.2h-.1V98h.1v-.1a7.38,7.38,0,0,1,7.4-7.4h20a7.43,7.43,0,0,1,5,12.9l-19.7,19.7Z"/><path class="cls-1" d="M350,200.4a6.16,6.16,0,0,1,8.7,0,6.22,6.22,0,0,1,1.8,4.3h.1v16.4h-.1v.1a6.06,6.06,0,0,1-6.1,6.1H338a6.09,6.09,0,0,1-4.1-10.6L350,200.4Z"/><path class="cls-1" d="M320,225.6a6.16,6.16,0,0,1-8.7,0,6.22,6.22,0,0,1-1.8-4.3h-.1V204.9h.1v-.1a6.06,6.06,0,0,1,6.1-6.1H332a6.09,6.09,0,0,1,4.1,10.6L320,225.6Z"/></g></g></svg>